<svg id="visual" viewBox="0 0 900 600" width="900" height="600" xmlns="http://www.w3.org/2000/svg" xmlns:xlink="http://www.w3.org/1999/xlink" version="1.1"><rect x="0" y="0" width="900" height="600" fill="#FFFFFF"></rect><path d="M0 408L129 448L257 408L386 419L514 416L643 385L771 393L900 376L900 601L771 601L643 601L514 601L386 601L257 601L129 601L0 601Z" fill="#4facf7"></path><path d="M0 428L129 443L257 456L386 416L514 439L643 433L771 477L900 448L900 601L771 601L643 601L514 601L386 601L257 601L129 601L0 601Z" fill="#2b9dfc"></path><path d="M0 489L129 441L257 450L386 465L514 477L643 495L771 482L900 505L900 601L771 601L643 601L514 601L386 601L257 601L129 601L0 601Z" fill="#008cff"></path><path d="M0 484L129 483L257 526L386 510L514 531L643 488L771 523L900 537L900 601L771 601L643 601L514 601L386 601L257 601L129 601L0 601Z" fill="#007aff"></path><path d="M0 569L129 545L257 570L386 537L514 527L643 550L771 542L900 547L900 601L771 601L643 601L514 601L386 601L257 601L129 601L0 601Z" fill="#0066ff"></path></svg>