<svg id="visual" viewBox="0 0 900 600" width="900" height="600" xmlns="http://www.w3.org/2000/svg" xmlns:xlink="http://www.w3.org/1999/xlink" version="1.1"><g stroke-width="1" stroke-linejoin="bevel"><path d="M416 314L317 319L325 391Z" fill="#479bdf" stroke="#479bdf"></path><path d="M325 391L426 429L416 314Z" fill="#479bdf" stroke="#479bdf"></path><path d="M374 220L326 230L317 319Z" fill="#173b5a" stroke="#173b5a"></path><path d="M416 314L374 220L317 319Z" fill="#1f4a6f" stroke="#1f4a6f"></path><path d="M426 429L526 380L416 314Z" fill="#0f2c47" stroke="#0f2c47"></path><path d="M416 314L529 178L374 220Z" fill="#275984" stroke="#275984"></path><path d="M181 311L199 401L317 319Z" fill="#0f2c47" stroke="#0f2c47"></path><path d="M317 319L199 401L325 391Z" fill="#2f699a" stroke="#2f699a"></path><path d="M325 391L384 532L426 429Z" fill="#0f2c47" stroke="#0f2c47"></path><path d="M526 380L538 295L416 314Z" fill="#3779b0" stroke="#3779b0"></path><path d="M199 401L288 512L325 391Z" fill="#0f2c47" stroke="#0f2c47"></path><path d="M426 429L539 511L526 380Z" fill="#3f8ac7" stroke="#3f8ac7"></path><path d="M288 512L384 532L325 391Z" fill="#2f699a" stroke="#2f699a"></path><path d="M326 230L181 311L317 319Z" fill="#275984" stroke="#275984"></path><path d="M560 511L560 371L526 380Z" fill="#4facf7" stroke="#4facf7"></path><path d="M526 380L560 371L538 295Z" fill="#4facf7" stroke="#4facf7"></path><path d="M288 64L214 191L326 230Z" fill="#479bdf" stroke="#479bdf"></path><path d="M326 230L214 191L181 311Z" fill="#479bdf" stroke="#479bdf"></path><path d="M560 371L587 302L538 295Z" fill="#0f2c47" stroke="#0f2c47"></path><path d="M538 295L529 178L416 314Z" fill="#1f4a6f" stroke="#1f4a6f"></path><path d="M384 532L539 511L426 429Z" fill="#275984" stroke="#275984"></path><path d="M560 371L684 334L587 302Z" fill="#001122" stroke="#001122"></path><path d="M587 302L529 178L538 295Z" fill="#275984" stroke="#275984"></path><path d="M374 220L288 64L326 230Z" fill="#479bdf" stroke="#479bdf"></path><path d="M199 401L178 508L288 512Z" fill="#4facf7" stroke="#4facf7"></path><path d="M288 512L362 600L384 532Z" fill="#275984" stroke="#275984"></path><path d="M130 515L178 508L199 401Z" fill="#173b5a" stroke="#173b5a"></path><path d="M268 600L362 600L288 512Z" fill="#1f4a6f" stroke="#1f4a6f"></path><path d="M384 532L512 600L539 511Z" fill="#081f34" stroke="#081f34"></path><path d="M573 600L560 511L539 511Z" fill="#001122" stroke="#001122"></path><path d="M539 511L560 511L526 380Z" fill="#2f699a" stroke="#2f699a"></path><path d="M529 178L490 123L374 220Z" fill="#1f4a6f" stroke="#1f4a6f"></path><path d="M234 600L268 600L288 512Z" fill="#0f2c47" stroke="#0f2c47"></path><path d="M178 508L234 600L288 512Z" fill="#001122" stroke="#001122"></path><path d="M490 123L382 66L374 220Z" fill="#1f4a6f" stroke="#1f4a6f"></path><path d="M362 600L512 600L384 532Z" fill="#4facf7" stroke="#4facf7"></path><path d="M70 362L130 515L199 401Z" fill="#3779b0" stroke="#3779b0"></path><path d="M178 508L130 515L234 600Z" fill="#3779b0" stroke="#3779b0"></path><path d="M529 178L592 73L490 123Z" fill="#4facf7" stroke="#4facf7"></path><path d="M485 0L389 0L382 66Z" fill="#3779b0" stroke="#3779b0"></path><path d="M587 302L599 166L529 178Z" fill="#001122" stroke="#001122"></path><path d="M382 66L288 64L374 220Z" fill="#001122" stroke="#001122"></path><path d="M68 235L78 285L181 311Z" fill="#1f4a6f" stroke="#1f4a6f"></path><path d="M181 311L70 362L199 401Z" fill="#1f4a6f" stroke="#1f4a6f"></path><path d="M68 235L181 311L214 191Z" fill="#4facf7" stroke="#4facf7"></path><path d="M78 285L70 362L181 311Z" fill="#3f8ac7" stroke="#3f8ac7"></path><path d="M681 402L684 334L560 371Z" fill="#479bdf" stroke="#479bdf"></path><path d="M587 302L709 210L599 166Z" fill="#275984" stroke="#275984"></path><path d="M681 402L560 371L560 511Z" fill="#4facf7" stroke="#4facf7"></path><path d="M698 468L681 402L560 511Z" fill="#3779b0" stroke="#3779b0"></path><path d="M89 99L68 235L214 191Z" fill="#1f4a6f" stroke="#1f4a6f"></path><path d="M78 285L0 325L70 362Z" fill="#001122" stroke="#001122"></path><path d="M512 600L573 600L539 511Z" fill="#4facf7" stroke="#4facf7"></path><path d="M288 64L162 70L214 191Z" fill="#3779b0" stroke="#3779b0"></path><path d="M700 600L698 468L560 511Z" fill="#001122" stroke="#001122"></path><path d="M681 402L783 320L684 334Z" fill="#4facf7" stroke="#4facf7"></path><path d="M485 0L382 66L490 123Z" fill="#081f34" stroke="#081f34"></path><path d="M382 66L334 0L288 64Z" fill="#4facf7" stroke="#4facf7"></path><path d="M288 64L217 0L162 70Z" fill="#4facf7" stroke="#4facf7"></path><path d="M389 0L334 0L382 66Z" fill="#0f2c47" stroke="#0f2c47"></path><path d="M669 105L592 73L599 166Z" fill="#173b5a" stroke="#173b5a"></path><path d="M599 166L592 73L529 178Z" fill="#275984" stroke="#275984"></path><path d="M684 334L709 210L587 302Z" fill="#2f699a" stroke="#2f699a"></path><path d="M783 320L709 210L684 334Z" fill="#0f2c47" stroke="#0f2c47"></path><path d="M592 73L485 0L490 123Z" fill="#275984" stroke="#275984"></path><path d="M0 175L0 325L68 235Z" fill="#001122" stroke="#001122"></path><path d="M68 235L0 325L78 285Z" fill="#4facf7" stroke="#4facf7"></path><path d="M70 362L0 506L130 515Z" fill="#2f699a" stroke="#2f699a"></path><path d="M0 325L0 379L70 362Z" fill="#001122" stroke="#001122"></path><path d="M75 0L89 99L162 70Z" fill="#0f2c47" stroke="#0f2c47"></path><path d="M162 70L89 99L214 191Z" fill="#4facf7" stroke="#4facf7"></path><path d="M334 0L217 0L288 64Z" fill="#081f34" stroke="#081f34"></path><path d="M709 210L669 105L599 166Z" fill="#479bdf" stroke="#479bdf"></path><path d="M592 73L606 0L485 0Z" fill="#001122" stroke="#001122"></path><path d="M0 506L70 600L130 515Z" fill="#1f4a6f" stroke="#1f4a6f"></path><path d="M130 515L70 600L234 600Z" fill="#081f34" stroke="#081f34"></path><path d="M0 379L0 506L70 362Z" fill="#479bdf" stroke="#479bdf"></path><path d="M89 99L0 175L68 235Z" fill="#1f4a6f" stroke="#1f4a6f"></path><path d="M573 600L700 600L560 511Z" fill="#479bdf" stroke="#479bdf"></path><path d="M832 420L783 320L681 402Z" fill="#2f699a" stroke="#2f699a"></path><path d="M832 420L681 402L698 468Z" fill="#1f4a6f" stroke="#1f4a6f"></path><path d="M709 210L793 215L669 105Z" fill="#1f4a6f" stroke="#1f4a6f"></path><path d="M669 105L606 0L592 73Z" fill="#4facf7" stroke="#4facf7"></path><path d="M0 506L0 600L70 600Z" fill="#479bdf" stroke="#479bdf"></path><path d="M783 320L793 215L709 210Z" fill="#0f2c47" stroke="#0f2c47"></path><path d="M669 105L730 0L606 0Z" fill="#275984" stroke="#275984"></path><path d="M217 0L75 0L162 70Z" fill="#173b5a" stroke="#173b5a"></path><path d="M89 99L0 60L0 175Z" fill="#275984" stroke="#275984"></path><path d="M700 600L802 505L698 468Z" fill="#3779b0" stroke="#3779b0"></path><path d="M783 320L900 277L793 215Z" fill="#1f4a6f" stroke="#1f4a6f"></path><path d="M75 0L0 60L89 99Z" fill="#3779b0" stroke="#3779b0"></path><path d="M802 505L832 420L698 468Z" fill="#3779b0" stroke="#3779b0"></path><path d="M839 78L730 0L669 105Z" fill="#479bdf" stroke="#479bdf"></path><path d="M75 0L0 0L0 60Z" fill="#081f34" stroke="#081f34"></path><path d="M700 600L817 600L802 505Z" fill="#479bdf" stroke="#479bdf"></path><path d="M900 516L900 392L832 420Z" fill="#3779b0" stroke="#3779b0"></path><path d="M900 516L832 420L802 505Z" fill="#081f34" stroke="#081f34"></path><path d="M832 420L900 392L783 320Z" fill="#3779b0" stroke="#3779b0"></path><path d="M793 215L839 78L669 105Z" fill="#4facf7" stroke="#4facf7"></path><path d="M900 392L900 277L783 320Z" fill="#173b5a" stroke="#173b5a"></path><path d="M900 131L839 78L793 215Z" fill="#3f8ac7" stroke="#3f8ac7"></path><path d="M900 277L900 225L793 215Z" fill="#173b5a" stroke="#173b5a"></path><path d="M817 600L900 516L802 505Z" fill="#081f34" stroke="#081f34"></path><path d="M900 225L900 131L793 215Z" fill="#081f34" stroke="#081f34"></path><path d="M900 0L825 0L839 78Z" fill="#173b5a" stroke="#173b5a"></path><path d="M839 78L825 0L730 0Z" fill="#3779b0" stroke="#3779b0"></path><path d="M817 600L900 600L900 516Z" fill="#275984" stroke="#275984"></path><path d="M900 131L900 0L839 78Z" fill="#081f34" stroke="#081f34"></path></g></svg>