<svg id="visual" viewBox="0 0 900 600" width="900" height="600" xmlns="http://www.w3.org/2000/svg" xmlns:xlink="http://www.w3.org/1999/xlink" version="1.1"><rect x="0" y="0" width="900" height="600" fill="#FFFFFF"></rect><path d="M0 375L21.5 385.2C43 395.3 86 415.7 128.8 425.3C171.7 435 214.3 434 257.2 437.2C300 440.3 343 447.7 385.8 443.5C428.7 439.3 471.3 423.7 514.2 420.2C557 416.7 600 425.3 642.8 422.5C685.7 419.7 728.3 405.3 771.2 414.7C814 424 857 457 878.5 473.5L900 490L900 601L878.5 601C857 601 814 601 771.2 601C728.3 601 685.7 601 642.8 601C600 601 557 601 514.2 601C471.3 601 428.7 601 385.8 601C343 601 300 601 257.2 601C214.3 601 171.7 601 128.8 601C86 601 43 601 21.5 601L0 601Z" fill="#0066FF" stroke-linecap="round" stroke-linejoin="miter"></path></svg>