<svg id="visual" viewBox="0 0 900 600" width="900" height="600" xmlns="http://www.w3.org/2000/svg" xmlns:xlink="http://www.w3.org/1999/xlink" version="1.1"><rect x="0" y="0" width="900" height="600" fill="#FFFFFF"></rect><path d="M0 362L21.5 363.5C43 365 86 368 128.8 373.8C171.7 379.7 214.3 388.3 257.2 400.5C300 412.7 343 428.3 385.8 424.3C428.7 420.3 471.3 396.7 514.2 381.3C557 366 600 359 642.8 369.7C685.7 380.3 728.3 408.7 771.2 412.7C814 416.7 857 396.3 878.5 386.2L900 376L900 601L878.5 601C857 601 814 601 771.2 601C728.3 601 685.7 601 642.8 601C600 601 557 601 514.2 601C471.3 601 428.7 601 385.8 601C343 601 300 601 257.2 601C214.3 601 171.7 601 128.8 601C86 601 43 601 21.5 601L0 601Z" fill="#4facf7"></path><path d="M0 411L21.5 422C43 433 86 455 128.8 457.2C171.7 459.3 214.3 441.7 257.2 429.7C300 417.7 343 411.3 385.8 418.2C428.7 425 471.3 445 514.2 451C557 457 600 449 642.8 450.2C685.7 451.3 728.3 461.7 771.2 460.7C814 459.7 857 447.3 878.5 441.2L900 435L900 601L878.5 601C857 601 814 601 771.2 601C728.3 601 685.7 601 642.8 601C600 601 557 601 514.2 601C471.3 601 428.7 601 385.8 601C343 601 300 601 257.2 601C214.3 601 171.7 601 128.8 601C86 601 43 601 21.5 601L0 601Z" fill="#2b9dfc"></path><path d="M0 473L21.5 469.5C43 466 86 459 128.8 455.5C171.7 452 214.3 452 257.2 449.8C300 447.7 343 443.3 385.8 453.2C428.7 463 471.3 487 514.2 496.5C557 506 600 501 642.8 499.5C685.7 498 728.3 500 771.2 493.2C814 486.3 857 470.7 878.5 462.8L900 455L900 601L878.5 601C857 601 814 601 771.2 601C728.3 601 685.7 601 642.8 601C600 601 557 601 514.2 601C471.3 601 428.7 601 385.8 601C343 601 300 601 257.2 601C214.3 601 171.7 601 128.8 601C86 601 43 601 21.5 601L0 601Z" fill="#008cff"></path><path d="M0 492L21.5 498.8C43 505.7 86 519.3 128.8 522.5C171.7 525.7 214.3 518.3 257.2 515C300 511.7 343 512.3 385.8 517.5C428.7 522.7 471.3 532.3 514.2 535.7C557 539 600 536 642.8 527.7C685.7 519.3 728.3 505.7 771.2 497.3C814 489 857 486 878.5 484.5L900 483L900 601L878.5 601C857 601 814 601 771.2 601C728.3 601 685.7 601 642.8 601C600 601 557 601 514.2 601C471.3 601 428.7 601 385.8 601C343 601 300 601 257.2 601C214.3 601 171.7 601 128.8 601C86 601 43 601 21.5 601L0 601Z" fill="#007aff"></path><path d="M0 528L21.5 532.5C43 537 86 546 128.8 549.3C171.7 552.7 214.3 550.3 257.2 549.5C300 548.7 343 549.3 385.8 548.5C428.7 547.7 471.3 545.3 514.2 548.5C557 551.7 600 560.3 642.8 563.5C685.7 566.7 728.3 564.3 771.2 563.2C814 562 857 562 878.5 562L900 562L900 601L878.5 601C857 601 814 601 771.2 601C728.3 601 685.7 601 642.8 601C600 601 557 601 514.2 601C471.3 601 428.7 601 385.8 601C343 601 300 601 257.2 601C214.3 601 171.7 601 128.8 601C86 601 43 601 21.5 601L0 601Z" fill="#0066ff"></path></svg>